<?xml version="1.0" standalone="no"?>
<!DOCTYPE svg PUBLIC "-//W3C//DTD SVG 20010904//EN"
 "http://www.w3.org/TR/2001/REC-SVG-20010904/DTD/svg10.dtd">
<svg version="1.0" xmlns="http://www.w3.org/2000/svg"
 width="298.000000pt" height="298.000000pt" viewBox="0 0 298.000000 298.000000"
 preserveAspectRatio="xMidYMid meet">
<metadata>
Created by potrace 1.14, written by Peter Selinger 2001-2017
</metadata>
<g transform="translate(0.000000,298.000000) scale(0.100000,-0.100000)"
fill="#000000" stroke="none">
<path d="M1349 2976 c-2 -2 -29 -7 -59 -10 -88 -11 -228 -46 -321 -81 -379
-145 -662 -409 -833 -777 -38 -82 -78 -195 -90 -253 -3 -11 -9 -42 -16 -70
-20 -87 -25 -146 -24 -295 0 -179 8 -247 45 -385 24 -88 68 -204 110 -287 31
-62 104 -182 124 -205 5 -6 37 -45 69 -85 200 -246 501 -423 851 -500 144 -32
424 -32 573 0 581 126 1013 537 1157 1102 33 130 36 162 40 335 3 162 -6 255
-36 370 -6 22 -12 47 -14 55 -19 97 -115 304 -200 430 -61 90 -82 116 -159
200 -194 209 -533 392 -806 435 -25 4 -54 9 -65 12 -24 6 -341 14 -346 9z"/>
</g>
</svg>
